<?xml version="1.0" encoding="utf-8"?>
<!-- Generator: Adobe Illustrator 19.0.0, SVG Export Plug-In . SVG Version: 6.00 Build 0)  -->
<svg version="1.0" id="Layer_1" xmlns="http://www.w3.org/2000/svg" xmlns:xlink="http://www.w3.org/1999/xlink" x="0px" y="0px"
	 width="182px" height="55px" viewBox="0 0 182 55" style="enable-background:new 0 0 182 55;" xml:space="preserve">
<style type="text/css">
	.st0{fill:#E2E2E2;}
	.st1{fill:#E2E3E2;}
	.st2{fill:#FFFFFF;}
	.st3{font-family:'TrebuchetMS-Bold';}
	.st4{font-size:29.328px;}
	.st5{fill:#5378BB;}
</style>
<g>
	<circle class="st0" cx="103.2" cy="14.6" r="11.2"/>
</g>
<g>
	<circle class="st0" cx="159.1" cy="39.8" r="11.5"/>
</g>
<g>
	<circle class="st0" cx="17.1" cy="14.2" r="10.1"/>
</g>
<g>
	<circle class="st0" cx="50.4" cy="45.8" r="6.6"/>
</g>
<g>
	<line class="st0" x1="108.3" y1="18.2" x2="155.4" y2="41.4"/>
	<polygon class="st1" points="108.7,17.3 155.4,41.4 107.9,19.1 	"/>
</g>
<g>
	<line class="st0" x1="51" y1="43.4" x2="95.8" y2="16.7"/>
	<polygon class="st1" points="50.5,42.5 95.8,16.7 51.6,44.2 	"/>
</g>
<g>
	<line class="st0" x1="19.4" y1="18.9" x2="47.2" y2="44.4"/>
	<polygon class="st1" points="20.1,18.2 47.2,44.4 18.7,19.7 	"/>
</g>
<g>
	<circle class="st2" cx="102.3" cy="14.6" r="11.2"/>
	<path class="st1" d="M112.5,14.6c0,0,0-0.3,0-0.8c0-0.3,0-0.5-0.1-0.9c0-0.3-0.1-0.7-0.2-1.1c-0.2-0.8-0.6-1.9-1.3-2.9
		c-0.7-1-1.6-2.1-2.8-3c-1.3-0.9-2.8-1.5-4.6-1.7c-0.4,0-0.9-0.1-1.3-0.1c-0.5,0-1,0-1.4,0.1C99.8,4.3,98.9,4.6,98,5
		c-0.9,0.4-1.7,0.9-2.5,1.5c-0.8,0.6-1.5,1.4-2.1,2.2c-0.6,0.8-1,1.8-1.4,2.8c-0.3,1-0.5,2-0.5,3.1c0,1.1,0.1,2.1,0.4,3.1
		c0.3,1,0.7,2,1.3,2.8c0.6,0.9,1.3,1.7,2,2.3c0.8,0.7,1.6,1.2,2.5,1.6c1.8,0.8,3.8,1.1,5.7,0.9c1.8-0.2,3.5-0.8,4.9-1.7
		c1.4-0.9,2.4-2,3.1-3.1c0.8-1.1,1.2-2.2,1.5-3.1c0.1-0.5,0.2-0.9,0.3-1.2c0.1-0.4,0.1-0.7,0.1-0.9c0-0.5,0.1-0.8,0.1-0.8
		L112.5,14.6z M113.5,14.6c0,0,0,0.3,0,0.8c0,0.3,0,0.6-0.1,0.9c0,0.4-0.1,0.8-0.3,1.3c-0.2,0.9-0.6,2.1-1.4,3.2
		c-0.7,1.1-1.8,2.3-3.1,3.3c-1.4,0.9-3.1,1.7-5,1.9c-1.9,0.2-4,0-5.9-0.8c-1-0.4-1.9-1-2.8-1.7c-0.8-0.7-1.6-1.5-2.2-2.4
		c-0.6-0.9-1.1-2-1.5-3c-0.3-1.1-0.5-2.3-0.5-3.4c0-1.1,0.1-2.3,0.5-3.4c0.3-1.1,0.8-2.2,1.4-3.1c0.6-0.9,1.4-1.8,2.2-2.5
		c0.9-0.7,1.8-1.3,2.8-1.8c1-0.4,2-0.8,3.1-0.9c0.6-0.1,1-0.1,1.5-0.1c0.6,0,1,0,1.6,0.1c2,0.2,3.8,0.9,5.3,1.9
		c1.5,1,2.6,2.2,3.4,3.4c0.8,1.2,1.3,2.4,1.6,3.4c0.1,0.5,0.3,1,0.3,1.4c0.1,0.4,0.1,0.8,0.1,1c0,0.5,0.1,0.8,0.1,0.8L113.5,14.6z"
		/>
</g>
<g>
	<circle class="st2" cx="157.9" cy="40.9" r="11.5"/>
	<path class="st1" d="M158,30.4c0,0-0.3,0-0.8,0c-0.3,0-0.6,0-0.9,0.1c-0.3,0-0.7,0.1-1.2,0.2c-0.9,0.2-1.9,0.6-3,1.3
		c-1.1,0.7-2.2,1.6-3.1,2.9c-0.9,1.3-1.6,2.9-1.8,4.7c0,0.4-0.1,0.9-0.1,1.3c0,0.5,0,1,0.1,1.5c0.1,0.9,0.4,1.9,0.8,2.8
		c0.4,0.9,0.9,1.8,1.6,2.6c0.7,0.8,1.4,1.5,2.3,2.1c0.9,0.6,1.8,1.1,2.9,1.4c1,0.3,2.1,0.5,3.2,0.5c1.1,0,2.2-0.1,3.2-0.4
		c1-0.3,2-0.8,2.9-1.3c0.9-0.6,1.7-1.3,2.4-2.1c0.7-0.8,1.3-1.7,1.7-2.6c0.9-1.9,1.2-3.9,1-5.8c-0.2-1.9-0.9-3.6-1.8-5
		c-0.9-1.4-2.1-2.5-3.2-3.2c-1.1-0.8-2.3-1.2-3.2-1.5c-0.5-0.1-0.9-0.2-1.3-0.3c-0.4-0.1-0.7-0.1-1-0.1c-0.5,0-0.8-0.1-0.8-0.1
		L158,30.4z M157.9,29.4c0,0,0.3,0,0.8,0c0.3,0,0.6,0,1,0.1c0.4,0,0.8,0.1,1.3,0.3c1,0.3,2.1,0.7,3.3,1.4c1.2,0.7,2.4,1.8,3.3,3.2
		c1,1.4,1.7,3.2,2,5.2c0.2,1.9,0,4.1-0.9,6.1c-0.4,1-1,1.9-1.7,2.8c-0.7,0.9-1.6,1.6-2.5,2.3c-1,0.6-2,1.2-3.1,1.5
		c-1.1,0.4-2.3,0.5-3.5,0.6c-1.2,0-2.4-0.1-3.5-0.5c-1.1-0.3-2.2-0.8-3.2-1.5c-1-0.7-1.9-1.4-2.6-2.3c-0.7-0.9-1.4-1.8-1.8-2.9
		c-0.5-1-0.8-2.1-1-3.2c-0.1-0.6-0.1-1.1-0.2-1.6c0-0.6,0-1.1,0.1-1.6c0.2-2.1,0.9-4,1.9-5.5c1-1.5,2.2-2.7,3.5-3.5
		c1.2-0.8,2.5-1.3,3.5-1.6c0.5-0.1,1-0.3,1.4-0.3c0.4-0.1,0.8-0.1,1-0.1c0.5,0,0.8-0.1,0.8-0.1L157.9,29.4z"/>
</g>
<g>
	<circle class="st2" cx="16.1" cy="14.2" r="10.1"/>
	<path class="st1" d="M25.3,14.3c0,0,0-0.2,0-0.7c0-0.2,0-0.5-0.1-0.8c0-0.3-0.1-0.6-0.2-1c-0.2-0.8-0.5-1.7-1.1-2.6
		c-0.6-0.9-1.4-1.9-2.6-2.7c-1.1-0.8-2.5-1.4-4.1-1.6c-0.4,0-0.8-0.1-1.2-0.1c-0.4,0-0.9,0-1.3,0.1C14,5,13.1,5.3,12.3,5.6
		C11.5,5.9,10.8,6.4,10,7C9.3,7.5,8.7,8.2,8.2,9C7.7,9.7,7.3,10.6,7,11.4c-0.3,0.9-0.4,1.9-0.5,2.8c0,1,0.1,1.9,0.4,2.8
		c0.3,0.9,0.7,1.8,1.2,2.6c0.5,0.8,1.1,1.5,1.8,2.1c0.7,0.6,1.5,1.1,2.3,1.5c1.6,0.8,3.4,1,5.1,0.9c1.6-0.2,3.2-0.7,4.4-1.5
		c1.2-0.8,2.2-1.8,2.9-2.8c0.7-1,1.1-2,1.3-2.8c0.1-0.4,0.2-0.8,0.3-1.1c0.1-0.3,0.1-0.6,0.1-0.8c0-0.5,0-0.7,0-0.7L25.3,14.3z
		 M26.3,14.2c0,0,0,0.2,0,0.7c0,0.2,0,0.5-0.1,0.9c0,0.3-0.1,0.7-0.2,1.1c-0.2,0.8-0.6,1.9-1.2,2.9c-0.7,1-1.6,2.1-2.8,3
		c-1.3,0.9-2.8,1.5-4.6,1.7c-1.7,0.2-3.6,0-5.4-0.7c-0.9-0.4-1.7-0.9-2.5-1.5c-0.8-0.6-1.5-1.4-2-2.2c-0.6-0.8-1-1.8-1.4-2.8
		c-0.3-1-0.5-2.1-0.5-3c0-1.1,0.1-2.1,0.4-3.1c0.3-1,0.7-2,1.3-2.8c0.6-0.9,1.2-1.7,2-2.3c0.8-0.7,1.6-1.2,2.5-1.6
		c0.9-0.4,1.8-0.7,2.8-0.9c0.5-0.1,0.9-0.1,1.4-0.1c0.5,0,1,0,1.4,0c1.8,0.2,3.5,0.8,4.9,1.7c1.4,0.9,2.4,2,3.1,3.1
		c0.8,1.1,1.2,2.2,1.4,3.1c0.1,0.5,0.2,0.9,0.3,1.3c0.1,0.4,0.1,0.7,0.1,0.9c0,0.5,0,0.7,0,0.7L26.3,14.2z"/>
</g>
<g>
	<circle class="st2" cx="49.6" cy="45.8" r="6.6"/>
	<path class="st1" d="M49.7,40.2c0,0-0.2,0-0.5,0c-0.2,0-0.3,0-0.5,0c-0.2,0-0.4,0.1-0.6,0.1c-0.9,0.2-2.3,0.8-3.3,2.2
		c-0.5,0.7-0.9,1.6-1,2.5c0,0.2,0,0.5-0.1,0.7c0,0.3,0,0.6,0,0.8c0,0.5,0.2,1,0.4,1.5c0.4,1,1.1,1.9,2.1,2.6c1,0.7,2.1,1.1,3.3,1.1
		c0.6,0,1.2-0.1,1.8-0.2c0.6-0.2,1.1-0.4,1.6-0.7c1-0.6,1.8-1.6,2.3-2.6c0.5-1.1,0.7-2.2,0.6-3.3c-0.1-1.1-0.5-2.1-1-2.9
		c-0.5-0.8-1.2-1.4-1.8-1.9c-0.6-0.5-1.3-0.7-1.8-0.9c-0.5-0.2-1-0.2-1.3-0.3c-0.3,0-0.5,0-0.5,0L49.7,40.2z M49.6,39.2
		c0,0,0.2,0,0.5,0c0.3,0,0.8,0,1.3,0.2c0.6,0.1,1.2,0.4,1.9,0.8c0.7,0.4,1.4,1,2,1.8c0.6,0.8,1,1.8,1.2,3c0.2,1.1,0,2.4-0.5,3.6
		c-0.5,1.2-1.3,2.3-2.5,3c-0.6,0.4-1.2,0.7-1.8,0.9c-0.7,0.2-1.4,0.3-2.1,0.4c-1.4,0-2.8-0.4-4-1.1c-1.2-0.8-2.1-1.8-2.7-3.1
		c-0.3-0.6-0.5-1.2-0.6-1.9c-0.1-0.4-0.1-0.6-0.1-0.9c0-0.4,0-0.6,0-1c0.1-1.2,0.5-2.4,1.1-3.3c0.6-0.9,1.3-1.6,2.1-2.1
		c0.7-0.5,1.5-0.8,2.1-1c0.6-0.2,1.2-0.3,1.5-0.3c0.3,0,0.5,0,0.5,0L49.6,39.2z"/>
</g>
<text transform="matrix(1 0 0 1 19.0781 37.4052)"><tspan x="0" y="0" class="st3 st4">T</tspan><tspan x="17.9" y="0" class="st3 st4">a</tspan><tspan x="33" y="0" class="st3 st4">lent</tspan><tspan x="87.4" y="0" class="st5 st3 st4">H</tspan><tspan x="106.9" y="0" class="st5 st3 st4">ub</tspan></text>
</svg>
